<svg xmlns="http://www.w3.org/2000/svg" width="342.953" height="382.63" viewBox="0 0 342.953 382.63">
  <g id="Group_1558" data-name="Group 1558" transform="translate(-2718.433 -1352.981)">
    <text id="_.in" data-name=".in" transform="translate(3061.257 1729.611)" fill="#fff" font-size="27" font-family="Helvetica"><tspan x="-28.516" y="0">.in</tspan></text>
    <g id="Group_1448" data-name="Group 1448" transform="translate(2718.433 1621.741)">
      <path id="Path_1645" data-name="Path 1645" d="M2747.547,1527.289a28.011,28.011,0,0,1-11.281-2.309,29.717,29.717,0,0,1-15.516-15.465,27.573,27.573,0,0,1-2.312-11.23A27.989,27.989,0,0,1,2720.75,1487a29.539,29.539,0,0,1,15.516-15.516,27.821,27.821,0,0,1,11.281-2.316,27.467,27.467,0,0,1,11.234,2.316,30.055,30.055,0,0,1,9.2,6.262,29.755,29.755,0,0,1,6.266,9.254,27.989,27.989,0,0,1,2.313,11.281,27.573,27.573,0,0,1-2.312,11.23,29.872,29.872,0,0,1-15.461,15.465A27.653,27.653,0,0,1,2747.547,1527.289Zm0-48.074a18.06,18.06,0,0,0-7.391,1.523A19.767,19.767,0,0,0,2730,1490.895a18.7,18.7,0,0,0,0,14.785,19.728,19.728,0,0,0,4.125,6.035,18.984,18.984,0,0,0,30.914-6.035,18.526,18.526,0,0,0,1.469-7.395,18.087,18.087,0,0,0-1.523-7.391,20.258,20.258,0,0,0-4.062-6.035,18.963,18.963,0,0,0-6.039-4.121A18.152,18.152,0,0,0,2747.547,1479.215Z" transform="translate(-2718.438 -1448.29)" fill="#fff"/>
      <path id="Path_1646" data-name="Path 1646" d="M2757.094,1473.027a20.757,20.757,0,0,1,11.391-3.383,20.476,20.476,0,0,1,8.125,1.641,20.995,20.995,0,0,1,11.234,11.223,20.593,20.593,0,0,1,1.633,8.125V1522.8a4.995,4.995,0,0,1-4.961,4.965,4.923,4.923,0,0,1-3.609-1.465,4.777,4.777,0,0,1-1.469-3.5v-32.168a10.639,10.639,0,0,0-.844-4.23,11.181,11.181,0,0,0-2.375-3.5,10.96,10.96,0,0,0-3.5-2.367,10.513,10.513,0,0,0-4.234-.848,10.9,10.9,0,0,0-4.281.848,10.2,10.2,0,0,0-3.508,2.367,11.674,11.674,0,0,0-2.3,3.5,10.51,10.51,0,0,0-.852,4.23,3.662,3.662,0,0,1-.227,1.02V1522.8a5.009,5.009,0,0,1-4.961,4.965,4.966,4.966,0,0,1-3.617-1.465,4.8,4.8,0,0,1-1.461-3.5v-48.863a4.991,4.991,0,0,1,5.078-5.078C2755.063,1468.859,2756.633,1470.242,2757.094,1473.027Z" transform="translate(-2675.388 -1448.765)" fill="#fff"/>
      <path id="Path_1647" data-name="Path 1647" d="M2821.879,1527.289a4.875,4.875,0,0,1-3.6-1.465,4.764,4.764,0,0,1-1.477-3.5v-2.148a29.62,29.62,0,0,1-8.8,5.246,28.667,28.667,0,0,1-21.437-.445,29.717,29.717,0,0,1-15.516-15.465,27.573,27.573,0,0,1-2.312-11.23,27.989,27.989,0,0,1,2.313-11.281,29.539,29.539,0,0,1,15.516-15.516,27.848,27.848,0,0,1,11.281-2.316,28.32,28.32,0,0,1,10.156,1.855,29.892,29.892,0,0,1,8.8,5.254v-2.145a4.758,4.758,0,0,1,1.477-3.5,4.878,4.878,0,0,1,3.6-1.469,5,5,0,0,1,4.969,4.965v48.191a4.995,4.995,0,0,1-4.969,4.961Zm-24.039-48.074a18.06,18.06,0,0,0-7.391,1.523,19.767,19.767,0,0,0-10.156,10.156,18.7,18.7,0,0,0,0,14.785,19.728,19.728,0,0,0,4.125,6.035,18.948,18.948,0,0,0,6.031,4.066,19.349,19.349,0,0,0,14.789,0,18.937,18.937,0,0,0,10.094-10.1,19.339,19.339,0,0,0,0-14.785,19,19,0,0,0-4.055-6.035,19.968,19.968,0,0,0-6.039-4.121A18.07,18.07,0,0,0,2797.84,1479.215Z" transform="translate(-2643.354 -1448.29)" fill="#fff"/>
      <path id="Path_1648" data-name="Path 1648" d="M2806.223,1474a6.757,6.757,0,0,1-6.664-6.656,6.2,6.2,0,0,1,1.977-4.691,6.907,6.907,0,0,1,9.43,0,6.258,6.258,0,0,1,1.914,4.691,6.758,6.758,0,0,1-6.656,6.656Zm0,65.789a5,5,0,0,1-4.969-4.961v-48.187a5.008,5.008,0,0,1,4.969-4.969,4.988,4.988,0,0,1,3.555,1.465,4.7,4.7,0,0,1,1.523,3.5v48.188a4.714,4.714,0,0,1-1.523,3.5A5,5,0,0,1,2806.223,1539.793Z" transform="translate(-2597.325 -1460.797)" fill="#fff"/>
      <path id="Path_1649" data-name="Path 1649" d="M2856.039,1527.289H2814.4a5.009,5.009,0,0,1-4.969-4.961,4.94,4.94,0,0,1,1.242-3.273l34.414-39.84H2814.4a5.009,5.009,0,0,1-4.969-4.961,4.923,4.923,0,0,1,1.469-3.613,4.764,4.764,0,0,1,3.5-1.469h41.641a4.921,4.921,0,0,1,3.609,1.469,4.78,4.78,0,0,1,1.469,3.5,5.088,5.088,0,0,1-1.242,3.387l-34.43,39.727h30.594a5.01,5.01,0,0,1,5.078,5.078,4.787,4.787,0,0,1-1.469,3.5A4.917,4.917,0,0,1,2856.039,1527.289Z" transform="translate(-2582.597 -1448.29)" fill="#fff"/>
      <path id="Path_1650" data-name="Path 1650" d="M2885.852,1527.289a4.923,4.923,0,0,1-3.617-1.465,4.787,4.787,0,0,1-1.469-3.5v-2.148a29.778,29.778,0,0,1-8.8,5.246,28.688,28.688,0,0,1-21.445-.445,29.644,29.644,0,0,1-15.516-15.465,27.446,27.446,0,0,1-2.312-11.23,27.858,27.858,0,0,1,2.313-11.281,29.467,29.467,0,0,1,15.516-15.516,27.831,27.831,0,0,1,11.289-2.316,28.32,28.32,0,0,1,10.156,1.855,30.054,30.054,0,0,1,8.8,5.254v-2.145a4.78,4.78,0,0,1,1.469-3.5,4.926,4.926,0,0,1,3.617-1.469,5.016,5.016,0,0,1,4.961,4.965v48.191a5.009,5.009,0,0,1-4.961,4.961Zm-24.039-48.074a18.06,18.06,0,0,0-7.391,1.523,19.618,19.618,0,0,0-10.156,10.156,18.7,18.7,0,0,0,0,14.785,19.821,19.821,0,0,0,4.109,6.035,19.016,19.016,0,0,0,6.047,4.066,19.309,19.309,0,0,0,14.773,0,18.965,18.965,0,0,0,10.109-10.1,19.434,19.434,0,0,0,0-14.785,19.148,19.148,0,0,0-4.062-6.035,19.908,19.908,0,0,0-6.047-4.121A18.024,18.024,0,0,0,2861.813,1479.215Z" transform="translate(-2547.859 -1448.29)" fill="#fff"/>
    </g>
    <g id="Group_1449" data-name="Group 1449" transform="translate(2807.123 1352.981)">
      <path id="Path_1651" data-name="Path 1651" d="M2836.684,1523.666c-1.766,0-3.547-.055-5.32-.164a82.576,82.576,0,0,1-12.758-163.01,14.889,14.889,0,0,1,18,14.627h0a15.09,15.09,0,0,1-11.93,14.623,52.764,52.764,0,0,0-40.648,54.721c1.617,25.969,23.219,47.57,49.188,49.184a52.333,52.333,0,0,0,39.164-13.91c11.078-10.258,16.9-25.008,16.9-40.109v-40.809a49.159,49.159,0,0,1,28.211-44.437,14.731,14.731,0,0,1,20.891,13.434h0a15,15,0,0,1-8.219,13.66,19.208,19.208,0,0,0-10.969,17.344v40.641c0,23.582-9.352,46.457-26.7,62.426A81.768,81.768,0,0,1,2836.684,1523.666Z" transform="translate(-2754.011 -1352.982)" fill="#fff"/>
    </g>
    <g id="Group_1450" data-name="Group 1450" transform="translate(2847.813 1531.861)">
      <circle id="Ellipse_138" data-name="Ellipse 138" cx="15.006" cy="15.006" r="15.006" fill="#fff"/>
    </g>
    <g id="Group_1451" data-name="Group 1451" transform="translate(2904.765 1531.861)">
      <circle id="Ellipse_139" data-name="Ellipse 139" cx="15.006" cy="15.006" r="15.006" fill="#fff"/>
    </g>
  </g>
</svg>
